<svg height='100px' width='100px'  fill="#FFFFFF" xmlns:x="http://ns.adobe.com/Extensibility/1.0/" xmlns:i="http://ns.adobe.com/AdobeIllustrator/10.0/" xmlns:graph="http://ns.adobe.com/Graphs/1.0/" xmlns="http://www.w3.org/2000/svg" xmlns:xlink="http://www.w3.org/1999/xlink" xmlns:a="http://ns.adobe.com/AdobeSVGViewerExtensions/3.0/" version="1.1" x="0px" y="0px" viewBox="0 0 100 100" enable-background="new 0 0 100 100" xml:space="preserve"><metadata><?xpacket begin="&#65279;" id="W5M0MpCehiHzreSzNTczkc9d"?><x:xmpmeta xmlns:x="adobe:ns:meta/" x:xmptk="Adobe XMP Core 5.5-c014 79.151739, 2013/04/03-12:12:15        "></x:xmpmeta><?xpacket end="w"?></metadata><path d="M87.5,26.5h-75c-0.5522461,0-1,0.4477539-1,1v5c0,0.5522461,0.4477539,1,1,1H14V40c0,0.5522461,0.4477539,1,1,1h1.5739746  l2.4289551,31.5766602C19.0429688,73.0976563,19.4775391,73.5,20,73.5h2.5c0.5224609,0,0.9570313-0.4023438,0.9970703-0.9233398  L25.9260254,41h48.1479492l2.4289551,31.5766602C76.5429688,73.0976563,76.9775391,73.5,77.5,73.5H80  c0.5224609,0,0.9570313-0.4023438,0.9970703-0.9233398L83.4260254,41H85c0.5522461,0,1-0.4477539,1-1v-6.5h1.5  c0.5522461,0,1-0.4477539,1-1v-5C88.5,26.9477539,88.0522461,26.5,87.5,26.5z M21.5737305,71.5h-0.6474609L18.5800781,41h5.3398438  L21.5737305,71.5z M79.0737305,71.5h-0.6474609L76.0800781,41h5.3398438L79.0737305,71.5z M84,39h-1.5H75H25h-7.5H16v-5.5h68V39z   M86.5,31.5H85H15h-1.5v-3h73V31.5z"></path></svg>