<svg height='100px' width='100px'  fill="#FFFFFF" xmlns="http://www.w3.org/2000/svg" xmlns:xlink="http://www.w3.org/1999/xlink" version="1.1" x="0px" y="0px" viewBox="0 0 48 48" style="enable-background:new 0 0 48 48;" xml:space="preserve"><g><path d="M13,23.5c2.26,0,4.33-1.17,5.51-3.04c1.15,1.82,3.18,3.04,5.49,3.04c2.31,0,4.34-1.22,5.49-3.04   c1.17,1.87,3.24,3.04,5.51,3.04c3.58,0,6.5-2.92,6.5-6.5s-2.92-6.5-6.5-6.5c-2.26,0-4.33,1.17-5.51,3.04   c-1.15-1.82-3.18-3.04-5.49-3.04c-2.31,0-4.34,1.22-5.49,3.04c-1.17-1.87-3.24-3.04-5.51-3.04c-3.58,0-6.5,2.92-6.5,6.5   S9.42,23.5,13,23.5z M30.05,14.63c0.91-1.91,2.82-3.13,4.95-3.13c3.03,0,5.5,2.47,5.5,5.5s-2.47,5.5-5.5,5.5   c-2.13,0-4.05-1.23-4.95-3.13c0.29-0.73,0.45-1.53,0.45-2.37S30.34,15.37,30.05,14.63z M24,11.5c3.03,0,5.5,2.47,5.5,5.5   s-2.47,5.5-5.5,5.5c-3.03,0-5.5-2.47-5.5-5.5S20.97,11.5,24,11.5z M13,11.5c2.13,0,4.05,1.23,4.95,3.13   c-0.29,0.74-0.45,1.53-0.45,2.37s0.16,1.63,0.45,2.37c-0.91,1.9-2.82,3.13-4.95,3.13c-3.03,0-5.5-2.47-5.5-5.5S9.97,11.5,13,11.5z"></path><path d="M4.5,37c0,0.28,0.22,0.5,0.5,0.5h11h5h6h5h11c0.28,0,0.5-0.22,0.5-0.5v-4c0-4.69-3.81-8.5-8.5-8.5   c-2.03,0-3.96,0.72-5.5,2.03c-1.48-1.26-3.4-2.03-5.5-2.03c-2.1,0-4.02,0.77-5.5,2.03c-1.54-1.31-3.47-2.03-5.5-2.03   c-4.69,0-8.5,3.81-8.5,8.5V37z M35,25.5c4.14,0,7.5,3.36,7.5,7.5v3.5h-10V33c0-2.23-0.87-4.25-2.28-5.77   C31.57,26.11,33.24,25.5,35,25.5z M24,25.5c4.14,0,7.5,3.36,7.5,7.5v3.5H27h-6h-4.5V33C16.5,28.86,19.86,25.5,24,25.5z M5.5,33   c0-4.14,3.36-7.5,7.5-7.5c1.76,0,3.43,0.61,4.78,1.73c-1.41,1.52-2.28,3.54-2.28,5.77v3.5h-10V33z"></path></g></svg>