<svg height='100px' width='100px'  fill="#000000" xmlns="http://www.w3.org/2000/svg" viewBox="0 0 64 64" x="0px" y="0px"><title>SEO Internet Marketing Web Development</title><path d="M60.22,49.77,41.81,31.37l3.72-3.71a12.7,12.7,0,0,0,11.7-3.4h0A12.71,12.71,0,0,0,59.7,9.9,1,1,0,0,0,59,9.34a1,1,0,0,0-.88.28l-6.79,6.8-4.12-4.13L54,5.51a1,1,0,0,0-.28-1.61A12.64,12.64,0,0,0,35.93,18.07l-6.17,6.19L14.94,9.43l-.08,0-.06-.06L9.14,5.4a1,1,0,0,0-1.28.11L5.18,8.2a1,1,0,0,0-.11,1.28L9,15.14l.06.06a.56.56,0,0,1,0,.08L23.91,30.09,5,49a6.78,6.78,0,0,0,9.6,9.59L31,42.15l18.4,18.41a4.89,4.89,0,0,0,6.87,0l3.91-3.92a4.86,4.86,0,0,0,0-6.87Zm-29-24.1,6.58-6.58a1,1,0,0,0,.25-1A10.65,10.65,0,0,1,51.47,5.17l-6.41,6.41a1,1,0,0,0,0,1.42l5.53,5.54a1,1,0,0,0,1.42,0l6.42-6.42a10.65,10.65,0,0,1-13,13.47,1,1,0,0,0-1,.25L40.4,30,37.85,27.4a1.05,1.05,0,0,0-.71-.29,1,1,0,0,0-.71.29l-1.76,1.76L34.52,29ZM13.94,11.85l.29-.29L29.05,26.38h0l4.2,4.2-3,3,0,0L26,29.38h0l-14.8-14.8ZM8.69,7.52l4,2.76L10,13,7.19,9ZM29.63,40.74,13.17,57.18a4.78,4.78,0,0,1-6.76-6.75L25.33,31.51,28.82,35l-1.76,1.75a1,1,0,0,0-.29.71,1.05,1.05,0,0,0,.29.71ZM58.8,55.22h0l-3.91,3.92a2.85,2.85,0,0,1-4,0L29.19,37.47,31,35.72h0l4.43-4.43,1.76-1.77L58.8,51.19a2.84,2.84,0,0,1,0,4Z"></path><path d="M36.23,35.15a1,1,0,0,0-1.41,0,1,1,0,0,0,0,1.41l18,18.06a1,1,0,0,0,1.41-1.42Z"></path></svg>