<svg height='100px' width='100px'  fill="#FFFFFF" xmlns="http://www.w3.org/2000/svg" xmlns:xlink="http://www.w3.org/1999/xlink" version="1.1" x="0px" y="0px" viewBox="0 0 144 144" style="enable-background:new 0 0 144 144;" xml:space="preserve"><path d="M72,7.5L40.3,19.9c-0.3,0-0.6,0.1-0.9,0.3L3.1,34.6v74.9l68.4,26.9c0,0,0,0,0,0l0.5,0.2l0.5-0.2c0,0,0,0,0,0l68.3-26.9V34.6  L72,7.5z M135.6,35.5l-27.7,10.9l-63.6-25L72,10.5L135.6,35.5z M72,60.5l-63.6-25l32.1-12.6l63.6,25L72,60.5z M5.9,37.6L70.6,63  l0,69.9L5.9,107.5V37.6z M73.5,132.9l0-69.9l64.7-25.4v69.9L73.5,132.9z"></path></svg>