<?xml version="1.0" encoding="UTF-8"?>
<!DOCTYPE svg PUBLIC "-//W3C//DTD SVG 1.1//EN" "http://www.w3.org/Graphics/SVG/1.1/DTD/svg11.dtd">
<!-- Creator: CorelDRAW -->
<svg xmlns="http://www.w3.org/2000/svg" xml:space="preserve" width="6.82666in" height="6.82666in" style="shape-rendering:geometricPrecision; text-rendering:geometricPrecision; image-rendering:optimizeQuality; fill-rule:evenodd; clip-rule:evenodd"
viewBox="0 0 6.82666 6.82666"
 xmlns:xlink="http://www.w3.org/1999/xlink">
 <defs>
  <style type="text/css">
   <![CDATA[
    .fil4 {fill:none}
    .fil3 {fill:#353535}
    .fil1 {fill:#AFAFAF}
    .fil0 {fill:#282929;fill-rule:nonzero}
    .fil2 {fill:#353535;fill-rule:nonzero}
   ]]>
  </style>
 </defs>
 <g id="Layer_x0020_1">
  <metadata id="CorelCorpID_0Corel-Layer"/>
  <polygon class="fil0" points="2.43817,4.00822 2.05165,5.59057 1.84498,5.54057 2.2315,3.95822 "/>
  <polygon class="fil0" points="4.47721,4.10967 4.86372,5.69202 4.65706,5.74202 4.27054,4.15967 "/>
  <path class="fil1" d="M1.62154 1.1632l0.00113386 0.00172835c0.0407677,0.0627441 0.0761654,0.129209 0.105752,0.198846 0.0740787,0.17437 0.0959961,0.442909 0.117756,0.632484 0.0615118,0.535835 0.156929,1.43135 0.649622,1.75539 0.574319,0.377724 1.20915,0.24563 1.82298,0.0691457 0.0598898,-0.0172205 0.11974,-0.0342756 0.180035,-0.0500472 0.250354,-0.0654764 0.43724,-0.0821102 0.682602,0.000877953 0.166657,0.0460197 0.237508,0.172941 0.219701,0.326866 -0.0947835,-0.061626 -0.413024,-0.235197 -0.848327,-0.121354 -0.0635984,0.0166339 -0.117059,0.0320039 -0.175063,0.0486811 -0.488606,0.140476 -1.28956,0.37076 -1.99915,-0.0959331 -0.568031,-0.373591 -0.673657,-1.29363 -0.744335,-1.9093 -0.0289252,-0.25198 -0.052374,-0.456205 -0.102165,-0.573402 -0.0855315,-0.201331 -0.214165,-0.337398 -0.323311,-0.423921l3.93701e-006 -1.9685e-005c0.178016,-0.0919606 0.312531,-0.0347638 0.412768,0.139953z"/>
  <path class="fil2" d="M1.44151 5.1296c0.178165,0.171441 0.450736,0.316764 0.783988,0.425016 0.402319,0.130685 0.890016,0.205256 1.40629,0.205256 0.468205,0 0.914618,-0.0612047 1.29488,-0.170823 0.244303,-0.0704252 0.45913,-0.163622 0.637811,-0.266783 0.113886,-0.065752 0.257283,-0.171346 0.391642,-0.0269488 -0.224906,0.21013 -0.564429,0.380657 -0.971122,0.497898 -0.400685,0.115504 -0.867335,0.179996 -1.35321,0.179996 -0.537929,0 -1.04857,-0.0785079 -1.47212,-0.216091 -0.432138,-0.14037 -0.776571,-0.34422 -0.972303,-0.591713 -0.0105984,-0.0718819 0.124098,-0.160937 0.25415,-0.0358071z"/>
  <polygon class="fil0" points="4.4616,2.72135 4.07509,4.3037 3.86842,4.2537 4.25493,2.67135 "/>
  <polygon class="fil0" points="3.51165,2.71654 3.43337,4.29888 3.21696,4.24888 3.29524,2.66654 "/>
  <polygon class="fil0" points="2.21822,2.80456 2.61106,4.24761 2.84142,4.24888 2.43463,2.75456 "/>
  <circle class="fil3" cx="5.02012" cy="2.94171" r="0.161457"/>
  <path class="fil2" d="M0.93737 1.05863c-0.0545354,-0.0218583 -0.0810276,-0.0837992 -0.0591693,-0.138335 0.0218583,-0.0545354 0.0837992,-0.0810276 0.138335,-0.0591693 0.00101969,0.000409449 0.355476,0.139528 0.53013,0.55065 0.0497913,0.117197 0.0732402,0.321421 0.102165,0.573402 0.0706772,0.615673 0.176303,1.53571 0.744335,1.9093 0.709591,0.466693 1.51054,0.236409 1.99915,0.0959331 0.0580039,-0.0166772 0.111465,-0.0320472 0.175063,-0.0486811 0.522594,-0.136673 0.876543,0.140933 0.877575,0.141724 0.0467126,0.0356654 0.0556654,0.102453 0.02,0.149165 -0.0356654,0.0467126 -0.102453,0.0556654 -0.149165,0.02 -0.000799213,-0.000610236 -0.274098,-0.215154 -0.695079,-0.105055 -0.0404724,0.0105827 -0.102583,0.0284449 -0.170063,0.0478465 -0.523724,0.150575 -1.38224,0.397406 -2.17415,-0.123429 -0.651748,-0.428654 -0.764134,-1.40756 -0.839335,-2.06264 -0.0270236,-0.235413 -0.0489291,-0.426201 -0.0863307,-0.514236 -0.139858,-0.329213 -0.412677,-0.436161 -0.413461,-0.436476z"/>
  <path class="fil2" d="M1.67241 2.82829c0.222299,-0.0257087 0.456657,-0.0603425 0.695189,-0.0955866 0.965161,-0.142606 1.99757,-0.295154 2.73378,0.0667756 0.0268819,0.0132126 0.0507126,0.0418425 0.0663701,0.0767717l-0.0910866 0.150795c-0.676709,-0.379248 -1.71235,-0.226224 -2.67823,-0.0835079 -0.239524,0.0353898 -0.474858,0.0701654 -0.701858,0.0964213l-0.0241654 -0.211669z"/>
  <rect class="fil4" width="6.82666" height="6.82666"/>
 </g>
</svg>
