<svg height='100px' width='100px'  fill="#000000" xmlns="http://www.w3.org/2000/svg" viewBox="0 0 68 68" x="0px" y="0px"><path fill="#000000" fill-rule="evenodd" d="M416,302.003487 C416,298.688644 418.690015,296 422.003487,296 L477.996513,296 C481.311356,296 484,298.690015 484,302.003487 L484,357.996513 C484,361.311356 481.309985,364 477.996513,364 L422.003487,364 C418.688644,364 416,361.309985 416,357.996513 L416,302.003487 Z M464,300 L464,337.99819 C464,341.312518 461.311859,344 457.99819,344 L420,344 L420,357.996513 C420,359.101303 420.89824,360 422.003487,360 L477.996513,360 C479.101303,360 480,359.10176 480,357.996513 L480,302.003487 C480,300.898697 479.10176,300 477.996513,300 L464,300 Z M440,300 L421.990053,300 C420.889757,300 420,300.890083 420,301.990053 L420,320 L438.009947,320 C439.110243,320 440,319.109917 440,318.009947 L440,300 Z M444,300 L444,300 L444,318.009947 C444,321.318729 441.31971,324 438.009947,324 L420,324 L420,340 L457.99819,340 C459.102939,340 460,339.103159 460,337.99819 L460,300 L444,300 Z" transform="translate(-416 -296)"></path></svg>